<svg xmlns="http://www.w3.org/2000/svg" viewBox="0 0 24 24" fill="currentColor" width="40px" height="40px" data-ux="IconSocial" class="x-el x-el-svg c1-1 c1-2 c1-19 c1-2h c1-36 c1-40 c1-41 c1-42 c1-43 c1-b c1-c c1-d c1-e c1-f c1-g"><g transform="translate(2 2)"><polygon points="8.811 11.495 11.927 9.88 8.807 8.255"/><path d="M10 0C4.477 0 0 4.477 0 10s4.477 10 10 10 10-4.477 10-10A10 10 0 0 0 10 0zm5.673 10.436c0 .935-.066 1.866-.066 1.866-.027.415-.17.814-.41 1.153-.306.308-.72.483-1.153.487-1.615.116-4.033.12-4.033.12s-2.99-.03-3.913-.117a1.91 1.91 0 0 1-1.25-.49 2.273 2.273 0 0 1-.419-1.146s-.033-.934-.033-1.865V9.56c0-.935.033-1.876.033-1.876s.03-.804.364-1.153c.305-.312.72-.493 1.156-.506 1.615-.116 4.036-.149 4.036-.149s2.411.033 4.026.15c.44.016.855.203 1.16.52.244.336.394.731.436 1.145 0 0 .07.934.07 1.865l-.004.88z"/></g></svg>